<svg width="12" height="18" viewBox="0 0 12 18" fill="none" xmlns="http://www.w3.org/2000/svg">
<path d="M10.2106 9.52746C11.289 8.50195 11.8846 7.13588 11.8846 5.68563C11.8846 4.23346 11.291 2.8693 10.2106 1.84379C9.13208 0.81828 7.69546 0.251953 6.17031 0.251953C4.64516 0.251953 3.20854 0.816366 2.13007 1.84379C1.0516 2.87121 0.456024 4.23346 0.456024 5.68563C0.456024 6.90629 0.876547 8.06573 1.6512 9.0128C1.79808 9.19264 1.95703 9.36292 2.12806 9.52746C2.29908 9.69009 2.48017 9.84124 2.66729 9.98091C3.46407 10.5702 4.40371 10.9452 5.40572 11.0715V13.1091H3.11196C3.02343 13.1091 2.95099 13.178 2.95099 13.2622V14.4101C2.95099 14.4943 3.02343 14.5632 3.11196 14.5632H5.40572V17.2417C5.40572 17.3259 5.47816 17.3948 5.56669 17.3948H6.77393C6.86246 17.3948 6.9349 17.3259 6.9349 17.2417V14.5632H9.22866C9.31719 14.5632 9.38963 14.4943 9.38963 14.4101V13.2622C9.38963 13.178 9.31719 13.1091 9.22866 13.1091H6.9349V11.0715C8.17232 10.9146 9.31317 10.3808 10.2106 9.52746ZM6.17031 9.66522C5.0516 9.66522 4.00331 9.25195 3.21055 8.50004C2.41981 7.74813 1.9852 6.7494 1.9852 5.68563C1.9852 4.62185 2.41981 3.62504 3.21055 2.87121C4.0013 2.11739 5.0516 1.70603 6.17031 1.70603C7.28902 1.70603 8.33731 2.1193 9.13007 2.87121C9.92081 3.62313 10.3554 4.62185 10.3554 5.68563C10.3554 6.7494 9.92081 7.74621 9.13007 8.50004C8.33731 9.25195 7.28902 9.66522 6.17031 9.66522Z" fill="white"/>
</svg>
