<svg width="16" height="16" viewBox="0 0 16 16" fill="none" xmlns="http://www.w3.org/2000/svg">
<path d="M14.8897 0.343994H9.96784C9.90338 0.343994 9.85065 0.396729 9.85065 0.461182V1.55493C9.85065 1.61938 9.90338 1.67212 9.96784 1.67212H13.1006L9.20807 5.5647C8.23151 4.81274 7.0401 4.40649 5.78815 4.40649C4.28619 4.40649 2.87213 4.99243 1.81158 6.05493C0.751038 7.11743 0.163147 8.52954 0.163147 10.0315C0.163147 11.5334 0.749084 12.9475 1.81158 14.0081C2.87213 15.0706 4.28619 15.6565 5.78815 15.6565C7.2901 15.6565 8.70416 15.0706 9.76471 14.0081C10.8272 12.9475 11.4131 11.5334 11.4131 10.0315C11.4131 8.77954 11.0069 7.59204 10.2569 6.61548L14.1475 2.72485V5.85181C14.1475 5.91626 14.2003 5.96899 14.2647 5.96899H15.3585C15.4229 5.96899 15.4756 5.91626 15.4756 5.85181V0.929932C15.4756 0.607666 15.212 0.343994 14.8897 0.343994ZM5.78815 14.1721C3.50494 14.1721 1.64752 12.3147 1.64752 10.0315C1.64752 7.74829 3.50494 5.89087 5.78815 5.89087C8.07135 5.89087 9.92877 7.74829 9.92877 10.0315C9.92877 12.3147 8.07135 14.1721 5.78815 14.1721Z" fill="white"/>
</svg>
